<svg width="100" height="100" viewBox="0 0 100 100" fill="none" xmlns="http://www.w3.org/2000/svg">
<path d="M68.2658 36.3777H17.0658C13.9227 36.3777 11.377 38.9235 11.377 42.0666V93.2666C11.377 96.4097 13.9227 98.9554 17.0658 98.9554H45.5103V73.3554H36.9769V64.8221H45.5103V60.2397C45.5103 51.5642 49.7371 47.7555 56.9478 47.7555C60.4009 47.7555 62.2271 48.0115 63.0918 48.1281V56.2888H58.1737C55.1131 56.2888 54.0436 57.9044 54.0436 61.1755V64.8221H63.015L61.7976 73.3554H54.0436V98.9554H68.2658C71.4089 98.9554 73.9547 96.4097 73.9547 93.2666V42.0666C73.9547 38.9235 71.4061 36.3777 68.2658 36.3777Z" fill="white"/>
</svg>
