<svg width="100" height="100" viewBox="0 0 100 100" fill="none" xmlns="http://www.w3.org/2000/svg">
<path d="M34.3743 10.4167C21.1793 10.4167 10.416 21.1801 10.416 34.3751V65.6251C10.416 78.8183 21.179 89.5834 34.3743 89.5834H65.6243C78.818 89.5834 89.5827 78.8187 89.5827 65.6251V34.3751C89.5827 21.1797 78.8176 10.4167 65.6243 10.4167H34.3743ZM34.3743 16.6667H65.6243C75.4394 16.6667 83.3327 24.558 83.3327 34.3751V65.6251C83.3327 75.4398 75.4391 83.3334 65.6243 83.3334H34.3743C24.5572 83.3334 16.666 75.4402 16.666 65.6251V34.3751C16.666 24.5576 24.5569 16.6667 34.3743 16.6667ZM70.8327 25.0001C68.5306 25.0001 66.666 26.8647 66.666 29.1667C66.666 31.4688 68.5306 33.3334 70.8327 33.3334C73.1348 33.3334 74.9993 31.4688 74.9993 29.1667C74.9993 26.8647 73.1348 25.0001 70.8327 25.0001ZM49.9993 29.1667C38.531 29.1667 29.166 38.5317 29.166 50.0001C29.166 61.4685 38.531 70.8334 49.9993 70.8334C61.4677 70.8334 70.8327 61.4685 70.8327 50.0001C70.8327 38.5317 61.4677 29.1667 49.9993 29.1667ZM49.9993 35.4167C58.0893 35.4167 64.5827 41.9101 64.5827 50.0001C64.5827 58.09 58.0893 64.5834 49.9993 64.5834C41.9094 64.5834 35.416 58.09 35.416 50.0001C35.416 41.9101 41.9094 35.4167 49.9993 35.4167Z" fill="#FAFAFA"/>
</svg>
