<svg width="100" height="100" viewBox="0 0 100 100" fill="none" xmlns="http://www.w3.org/2000/svg">
<path d="M80.0006 13.3334H20.0006C16.3173 13.3334 13.334 16.3167 13.334 20V80C13.334 83.6833 16.3173 86.6667 20.0006 86.6667H80.0006C83.684 86.6667 86.6673 83.6833 86.6673 80V20C86.6673 16.3167 83.684 13.3334 80.0006 13.3334ZM36.514 73.3334H26.6806V41.6934H36.514V73.3334ZM31.4973 37.17C28.3273 37.17 25.764 34.6 25.764 31.4367C25.764 28.2734 28.3306 25.7067 31.4973 25.7067C34.6573 25.7067 37.2273 28.2767 37.2273 31.4367C37.2273 34.6 34.6573 37.17 31.4973 37.17ZM73.3473 73.3334H63.5206V57.9467C63.5206 54.2767 63.454 49.5567 58.4106 49.5567C53.294 49.5567 52.5073 53.5534 52.5073 57.68V73.3334H42.6806V41.6934H52.114V46.0167H52.2473C53.5606 43.53 56.7673 40.9067 61.5506 40.9067C71.5073 40.9067 73.3473 47.46 73.3473 55.98V73.3334Z" fill="white"/>
</svg>
